<svg width="201" height="54" viewBox="0 0 201 54" fill="none" xmlns="http://www.w3.org/2000/svg">
<path d="M19.008 22.72C18.552 21.88 17.892 21.244 17.028 20.812C16.188 20.356 15.192 20.128 14.04 20.128C12.048 20.128 10.452 20.788 9.252 22.108C8.052 23.404 7.452 25.144 7.452 27.328C7.452 29.656 8.076 31.48 9.324 32.8C10.596 34.096 12.336 34.744 14.544 34.744C16.056 34.744 17.328 34.36 18.36 33.592C19.416 32.824 20.184 31.72 20.664 30.28H12.852V25.744H26.244V31.468C25.788 33.004 25.008 34.432 23.904 35.752C22.824 37.072 21.444 38.14 19.764 38.956C18.084 39.772 16.188 40.18 14.076 40.18C11.58 40.18 9.348 39.64 7.38 38.56C5.436 37.456 3.912 35.932 2.808 33.988C1.728 32.044 1.188 29.824 1.188 27.328C1.188 24.832 1.728 22.612 2.808 20.668C3.912 18.7 5.436 17.176 7.38 16.096C9.324 14.992 11.544 14.44 14.04 14.44C17.064 14.44 19.608 15.172 21.672 16.636C23.76 18.1 25.14 20.128 25.812 22.72H19.008ZM39.1219 14.728C41.7859 14.728 44.1139 15.256 46.1059 16.312C48.0979 17.368 49.6339 18.856 50.7139 20.776C51.8179 22.672 52.3699 24.868 52.3699 27.364C52.3699 29.836 51.8179 32.032 50.7139 33.952C49.6339 35.872 48.0859 37.36 46.0699 38.416C44.0779 39.472 41.7619 40 39.1219 40H29.6539V14.728H39.1219ZM38.7259 34.672C41.0539 34.672 42.8659 34.036 44.1619 32.764C45.4579 31.492 46.1059 29.692 46.1059 27.364C46.1059 25.036 45.4579 23.224 44.1619 21.928C42.8659 20.632 41.0539 19.984 38.7259 19.984H35.8099V34.672H38.7259ZM64.9541 40.252C63.1061 40.252 61.4501 39.952 59.9861 39.352C58.5221 38.752 57.3461 37.864 56.4581 36.688C55.5941 35.512 55.1381 34.096 55.0901 32.44H61.6421C61.7381 33.376 62.0621 34.096 62.6141 34.6C63.1661 35.08 63.8861 35.32 64.7741 35.32C65.6861 35.32 66.4061 35.116 66.9341 34.708C67.4621 34.276 67.7261 33.688 67.7261 32.944C67.7261 32.32 67.5101 31.804 67.0781 31.396C66.6701 30.988 66.1541 30.652 65.5301 30.388C64.9301 30.124 64.0661 29.824 62.9381 29.488C61.3061 28.984 59.9741 28.48 58.9421 27.976C57.9101 27.472 57.0221 26.728 56.2781 25.744C55.5341 24.76 55.1621 23.476 55.1621 21.892C55.1621 19.54 56.0141 17.704 57.7181 16.384C59.4221 15.04 61.6421 14.368 64.3781 14.368C67.1621 14.368 69.4061 15.04 71.1101 16.384C72.8141 17.704 73.7261 19.552 73.8461 21.928H67.1861C67.1381 21.112 66.8381 20.476 66.2861 20.02C65.7341 19.54 65.0261 19.3 64.1621 19.3C63.4181 19.3 62.8181 19.504 62.3621 19.912C61.9061 20.296 61.6781 20.86 61.6781 21.604C61.6781 22.42 62.0621 23.056 62.8301 23.512C63.5981 23.968 64.7981 24.46 66.4301 24.988C68.0621 25.54 69.3821 26.068 70.3901 26.572C71.4221 27.076 72.3101 27.808 73.0541 28.768C73.7981 29.728 74.1701 30.964 74.1701 32.476C74.1701 33.916 73.7981 35.224 73.0541 36.4C72.3341 37.576 71.2781 38.512 69.8861 39.208C68.4941 39.904 66.8501 40.252 64.9541 40.252ZM76.9146 27.328C76.9146 24.832 77.4546 22.612 78.5346 20.668C79.6146 18.7 81.1146 17.176 83.0346 16.096C84.9786 14.992 87.1746 14.44 89.6226 14.44C92.6226 14.44 95.1906 15.232 97.3266 16.816C99.4626 18.4 100.891 20.56 101.611 23.296H94.8426C94.3386 22.24 93.6186 21.436 92.6826 20.884C91.7706 20.332 90.7266 20.056 89.5506 20.056C87.6546 20.056 86.1186 20.716 84.9426 22.036C83.7666 23.356 83.1786 25.12 83.1786 27.328C83.1786 29.536 83.7666 31.3 84.9426 32.62C86.1186 33.94 87.6546 34.6 89.5506 34.6C90.7266 34.6 91.7706 34.324 92.6826 33.772C93.6186 33.22 94.3386 32.416 94.8426 31.36H101.611C100.891 34.096 99.4626 36.256 97.3266 37.84C95.1906 39.4 92.6226 40.18 89.6226 40.18C87.1746 40.18 84.9786 39.64 83.0346 38.56C81.1146 37.456 79.6146 35.932 78.5346 33.988C77.4546 32.044 76.9146 29.824 76.9146 27.328ZM131.189 14.728V19.66H124.493V40H118.337V19.66H111.641V14.728H131.189ZM153.215 29.632C153.215 30.208 153.179 30.808 153.107 31.432H139.175C139.271 32.68 139.667 33.64 140.363 34.312C141.083 34.96 141.959 35.284 142.991 35.284C144.527 35.284 145.595 34.636 146.195 33.34H152.747C152.411 34.66 151.799 35.848 150.911 36.904C150.047 37.96 148.955 38.788 147.635 39.388C146.315 39.988 144.839 40.288 143.207 40.288C141.239 40.288 139.487 39.868 137.951 39.028C136.415 38.188 135.215 36.988 134.351 35.428C133.487 33.868 133.055 32.044 133.055 29.956C133.055 27.868 133.475 26.044 134.315 24.484C135.179 22.924 136.379 21.724 137.915 20.884C139.451 20.044 141.215 19.624 143.207 19.624C145.151 19.624 146.879 20.032 148.391 20.848C149.903 21.664 151.079 22.828 151.919 24.34C152.783 25.852 153.215 27.616 153.215 29.632ZM146.915 28.012C146.915 26.956 146.555 26.116 145.835 25.492C145.115 24.868 144.215 24.556 143.135 24.556C142.103 24.556 141.227 24.856 140.507 25.456C139.811 26.056 139.379 26.908 139.211 28.012H146.915ZM155.238 29.956C155.238 27.868 155.658 26.044 156.498 24.484C157.362 22.924 158.55 21.724 160.062 20.884C161.598 20.044 163.35 19.624 165.318 19.624C167.838 19.624 169.938 20.284 171.618 21.604C173.322 22.924 174.438 24.784 174.966 27.184H168.414C167.862 25.648 166.794 24.88 165.21 24.88C164.082 24.88 163.182 25.324 162.51 26.212C161.838 27.076 161.502 28.324 161.502 29.956C161.502 31.588 161.838 32.848 162.51 33.736C163.182 34.6 164.082 35.032 165.21 35.032C166.794 35.032 167.862 34.264 168.414 32.728H174.966C174.438 35.08 173.322 36.928 171.618 38.272C169.914 39.616 167.814 40.288 165.318 40.288C163.35 40.288 161.598 39.868 160.062 39.028C158.55 38.188 157.362 36.988 156.498 35.428C155.658 33.868 155.238 32.044 155.238 29.956ZM190.607 19.696C192.911 19.696 194.759 20.464 196.151 22C197.543 23.512 198.239 25.6 198.239 28.264V40H192.119V29.092C192.119 27.748 191.771 26.704 191.075 25.96C190.379 25.216 189.443 24.844 188.267 24.844C187.091 24.844 186.155 25.216 185.459 25.96C184.763 26.704 184.415 27.748 184.415 29.092V40H178.259V13.36H184.415V22.612C185.039 21.724 185.891 21.016 186.971 20.488C188.051 19.96 189.263 19.696 190.607 19.696Z" fill="#333535"/>
<circle cx="120.5" cy="4.5" r="4.5" fill="#298DEA"/>
</svg>
